<?xml version="1.0" encoding="UTF-8"?><svg id="Layer_1" xmlns="http://www.w3.org/2000/svg" viewBox="0 0 220 220"><defs><style>.cls-1{fill:#ffcc01;}.cls-2{fill:#f88600;}.cls-3{fill:#ffaf01;}</style></defs><path class="cls-2" d="M109.3887,49.769c23.2794,49.227-25.0137,63.1013-25.0137,82.045,0,57.6983,78.91,43.7573,78.91,.9338,0-33.2182-53.8963-82.9789-53.8963-82.9789Z"/><path class="cls-3" d="M107.3876,55.4388c-25.2138,25.8809,20.5446,66.1697,17.9432,83.9127-8.1378,54.1631-76.9756,23.2127-67.7705-16.1422,7.0705-30.4834,49.8274-67.7705,49.8274-67.7705Z"/><path class="cls-1" d="M103.9191,67.6455c15.742,37.7541-21.4118,46.2254-17.3429,74.8411,6.9371,49.0936,72.1062,25.1471,65.5693-11.0727-5.0695-28.0821-48.2265-63.7683-48.2265-63.7683Z"/></svg>